<svg xmlns="http://www.w3.org/2000/svg" width="2560" height="2560" viewBox="0 0 1280 1280">
  <metadata><?xpacket begin="﻿" id="W5M0MpCehiHzreSzNTczkc9d"?>
<x:xmpmeta xmlns:x="adobe:ns:meta/" x:xmptk="Adobe XMP Core 5.6-c138 79.159824, 2016/09/14-01:09:01        ">
   <rdf:RDF xmlns:rdf="http://www.w3.org/1999/02/22-rdf-syntax-ns#">
      <rdf:Description rdf:about=""/>
   </rdf:RDF>
</x:xmpmeta>
                                                                                                    
                                                                                                    
                                                                                                    
                                                                                                    
                                                                                                    
                                                                                                    
                                                                                                    
                                                                                                    
                                                                                                    
                                                                                                    
                                                                                                    
                                                                                                    
                                                                                                    
                                                                                                    
                                                                                                    
                                                                                                    
                                                                                                    
                                                                                                    
                                                                                                    
                                                                                                    
                           
<?xpacket end="w"?></metadata>
<defs>
    <style>
      .cls-1 {
        fill: none;
        stroke: #000307;
        stroke-width: 24px;
      }

      .cls-2 {
        fill-rule: evenodd;
      }
    </style>
  </defs>
  <circle class="cls-1" cx="640" cy="640" r="509"/>
  <path id="C" class="cls-2" d="M714.3,756.594q-26.487,22.034-64.687,22.032a111.408,111.408,0,0,1-58.36-16.172q-26.955-16.171-39.726-48.867t-12.774-76.524a205.193,205.193,0,0,1,10.782-65.976q10.777-31.993,37.382-50.977t66.211-18.984q34.454,0,57.188,17.109T745,572.844L789.767,562.3q-13.832-47.577-48.984-73.829t-86.719-26.25q-45.472,0-83.32,20.743t-58.36,60.7q-20.511,39.963-20.508,93.633,0,49.218,18.164,92.109t52.969,65.508q34.8,22.62,90.352,22.617,53.668,0,90.82-29.414t51.445-85.43L750.158,691.2Q740.78,734.566,714.3,756.594Z"/>
</svg>
