<svg xmlns="http://www.w3.org/2000/svg" width="2560" height="2560" viewBox="0 0 1280 1280">
  <metadata><?xpacket begin="﻿" id="W5M0MpCehiHzreSzNTczkc9d"?>
<x:xmpmeta xmlns:x="adobe:ns:meta/" x:xmptk="Adobe XMP Core 5.6-c138 79.159824, 2016/09/14-01:09:01        ">
   <rdf:RDF xmlns:rdf="http://www.w3.org/1999/02/22-rdf-syntax-ns#">
      <rdf:Description rdf:about=""/>
   </rdf:RDF>
</x:xmpmeta>
                                                                                                    
                                                                                                    
                                                                                                    
                                                                                                    
                                                                                                    
                                                                                                    
                                                                                                    
                                                                                                    
                                                                                                    
                                                                                                    
                                                                                                    
                                                                                                    
                                                                                                    
                                                                                                    
                                                                                                    
                                                                                                    
                                                                                                    
                                                                                                    
                                                                                                    
                                                                                                    
                           
<?xpacket end="w"?></metadata>
<defs>
    <style>
      .cls-1 {
        fill: none;
        stroke: #000307;
        stroke-width: 24px;
      }

      .cls-2 {
        fill-rule: evenodd;
      }
    </style>
  </defs>
  <circle class="cls-1" cx="640" cy="640" r="509"/>
  <path id="О" class="cls-2" d="M497.5,730.11a150.782,150.782,0,0,0,57.891,63.984q38.2,23.44,86.719,23.438a170.733,170.733,0,0,0,83.437-21.211q38.671-21.209,59.766-62.461t21.094-93.516q0-51.558-20.039-92.226t-58.243-63.4q-38.205-22.73-85.781-22.734-72.659,0-118.594,48.4T477.814,644.329A193.9,193.9,0,0,0,497.5,730.11Zm61.993-195.82q34.8-33.162,83.085-33.164,33.981,0,61.29,17.226t41.484,48.516q14.178,31.288,14.18,73.242,0,66.33-33.164,102.422t-84.493,36.094q-50.394,0-83.789-35.743t-33.4-97.851Q524.689,567.458,559.494,534.29Z"/>
</svg>
